
<svg xmlns="http://www.w3.org/2000/svg" xmlns:xlink="http://www.w3.org/1999/xlink" width="500" zoomAndPan="magnify" viewBox="0 0 375 374.999991" height="500" preserveAspectRatio="xMidYMid meet" version="1.0"><defs><g/><clipPath id="9c47da3961"><path d="M 137.832031 108.078125 L 211 108.078125 L 211 181 L 137.832031 181 Z M 137.832031 108.078125 " clip-rule="nonzero"/></clipPath><clipPath id="1ea9a6a263"><path d="M 97.921875 108.078125 L 130.921875 108.078125 L 130.921875 141.078125 L 97.921875 141.078125 Z M 97.921875 108.078125 " clip-rule="nonzero"/></clipPath><clipPath id="e1d695b78a"><path d="M 219.75 142.011719 L 247.5 142.011719 L 247.5 169.761719 L 219.75 169.761719 Z M 219.75 142.011719 " clip-rule="nonzero"/></clipPath><clipPath id="f20d158bad"><path d="M 150.539062 188.519531 L 167.789062 188.519531 L 167.789062 205.769531 L 150.539062 205.769531 Z M 150.539062 188.519531 " clip-rule="nonzero"/></clipPath><clipPath id="0ff7a021ea"><path d="M 0 312 L 20 312 L 20 315.0625 L 0 315.0625 Z M 0 312 " clip-rule="nonzero"/></clipPath><clipPath id="0bf6a8cbb1"><path d="M 333 62.3125 L 357 62.3125 L 357 74 L 333 74 Z M 333 62.3125 " clip-rule="nonzero"/></clipPath><clipPath id="52f87f4683"><path d="M 195 62.3125 L 222 62.3125 L 222 64 L 195 64 Z M 195 62.3125 " clip-rule="nonzero"/></clipPath><clipPath id="cd735cf726"><path d="M 225 62.3125 L 250 62.3125 L 250 66 L 225 66 Z M 225 62.3125 " clip-rule="nonzero"/></clipPath><clipPath id="681db04107"><path d="M 86 295 L 108 295 L 108 315.0625 L 86 315.0625 Z M 86 295 " clip-rule="nonzero"/></clipPath></defs><path fill="#7ed957" d="M 193.675781 169.902344 L 199.65625 163.921875 L 211.796875 176.066406 L 205.816406 182.046875 Z M 193.675781 169.902344 " fill-opacity="1" fill-rule="nonzero"/><path fill="#7ed957" d="M 230.976562 188.457031 C 233.617188 191.097656 233.617188 195.386719 230.976562 198.03125 L 227.785156 201.21875 C 225.136719 203.867188 220.851562 203.867188 218.210938 201.21875 L 201.105469 184.113281 C 198.460938 181.46875 198.460938 177.183594 201.105469 174.539062 L 204.296875 171.347656 C 206.9375 168.707031 211.230469 168.707031 213.871094 171.347656 Z M 230.976562 188.457031 " fill-opacity="1" fill-rule="nonzero"/><g clip-path="url(#9c47da3961)"><path fill="#7ed957" d="M 174.15625 108.035156 C 154.066406 108.035156 137.789062 124.3125 137.789062 144.402344 C 137.789062 164.492188 154.066406 180.773438 174.15625 180.773438 C 194.246094 180.773438 210.53125 164.492188 210.53125 144.402344 C 210.53125 124.3125 194.246094 108.035156 174.15625 108.035156 Z M 174.15625 174.042969 C 157.78125 174.042969 144.511719 160.777344 144.511719 144.402344 C 144.511719 128.027344 157.78125 114.761719 174.15625 114.761719 C 190.53125 114.761719 203.800781 128.027344 203.800781 144.402344 C 203.800781 160.777344 190.53125 174.042969 174.15625 174.042969 Z M 174.15625 174.042969 " fill-opacity="1" fill-rule="nonzero"/></g><path fill="#7ed957" d="M 181.613281 162.40625 C 167.105469 162.40625 155.339844 150.640625 155.339844 136.128906 C 155.339844 135.742188 155.378906 135.367188 155.398438 134.980469 C 153.480469 138.078125 152.359375 141.722656 152.359375 145.628906 C 152.359375 156.847656 161.453125 165.941406 172.671875 165.941406 C 177.003906 165.941406 181.007812 164.578125 184.308594 162.269531 C 183.421875 162.363281 182.523438 162.40625 181.613281 162.40625 Z M 181.613281 162.40625 " fill-opacity="1" fill-rule="nonzero"/><g clip-path="url(#1ea9a6a263)"><path fill="#7ed957" d="M 97.921875 124.574219 C 112.230469 126.769531 112.230469 126.769531 114.421875 141.078125 C 116.613281 126.769531 116.613281 126.769531 130.917969 124.574219 C 116.613281 122.386719 116.613281 122.386719 114.421875 108.078125 C 112.230469 122.386719 112.230469 122.386719 97.921875 124.574219 " fill-opacity="1" fill-rule="nonzero"/></g><g clip-path="url(#e1d695b78a)"><path fill="#7ed957" d="M 219.75 155.882812 C 231.78125 157.730469 231.78125 157.730469 233.628906 169.757812 C 235.46875 157.730469 235.46875 157.730469 247.5 155.882812 C 235.46875 154.042969 235.46875 154.042969 233.628906 142.011719 C 231.78125 154.042969 231.78125 154.042969 219.75 155.882812 " fill-opacity="1" fill-rule="nonzero"/></g><g clip-path="url(#f20d158bad)"><path fill="#7ed957" d="M 150.539062 197.144531 C 158.019531 198.292969 158.019531 198.292969 159.167969 205.769531 C 160.308594 198.292969 160.308594 198.292969 167.789062 197.144531 C 160.308594 196 160.308594 196 159.167969 188.523438 C 158.019531 196 158.019531 196 150.539062 197.144531 " fill-opacity="1" fill-rule="nonzero"/></g><path fill="#ecc889" d="M 336.183594 103.941406 C 337.554688 111.691406 338.660156 112.800781 346.417969 114.164062 C 338.664062 115.535156 337.554688 116.644531 336.183594 124.390625 C 334.816406 116.640625 333.707031 115.53125 325.949219 114.164062 C 333.703125 112.796875 334.816406 111.6875 336.183594 103.941406 Z M 336.183594 103.941406 " fill-opacity="1" fill-rule="nonzero"/><path fill="#ecc889" d="M 166.054688 272.109375 C 167.777344 281.851562 169.171875 283.246094 178.917969 284.964844 C 169.171875 286.6875 167.777344 288.082031 166.054688 297.824219 C 164.332031 288.082031 162.9375 286.6875 153.191406 284.964844 C 162.9375 283.246094 164.332031 281.851562 166.054688 272.109375 Z M 166.054688 272.109375 " fill-opacity="1" fill-rule="nonzero"/><path fill="#ecc889" d="M 114.671875 176.90625 C 116.039062 184.65625 117.148438 185.765625 124.90625 187.132812 C 117.152344 188.5 116.039062 189.609375 114.671875 197.355469 C 113.300781 189.605469 112.195312 188.496094 104.4375 187.132812 C 112.191406 185.761719 113.300781 184.652344 114.671875 176.90625 Z M 114.671875 176.90625 " fill-opacity="1" fill-rule="nonzero"/><path fill="#ffc0a7" d="M 218.164062 65.195312 C 218.984375 69.84375 219.652344 70.511719 224.300781 71.332031 C 219.648438 72.152344 218.984375 72.820312 218.164062 77.464844 C 217.34375 72.816406 216.675781 72.152344 212.027344 71.332031 C 216.679688 70.511719 217.34375 69.84375 218.164062 65.195312 Z M 218.164062 65.195312 " fill-opacity="1" fill-rule="nonzero"/><path fill="#ecc889" d="M 287.34375 242.03125 C 287.890625 245.132812 288.332031 245.574219 291.433594 246.125 C 288.332031 246.671875 287.890625 247.113281 287.34375 250.214844 C 286.792969 247.113281 286.351562 246.671875 283.25 246.125 C 286.351562 245.574219 286.792969 245.132812 287.34375 242.03125 Z M 287.34375 242.03125 " fill-opacity="1" fill-rule="nonzero"/><path fill="#ffc0a7" d="M 229.058594 71.367188 C 229.878906 76.015625 230.546875 76.679688 235.195312 77.5 C 230.542969 78.320312 229.878906 78.988281 229.058594 83.636719 C 228.238281 78.984375 227.570312 78.320312 222.921875 77.5 C 227.574219 76.679688 228.238281 76.011719 229.058594 71.367188 Z M 229.058594 71.367188 " fill-opacity="1" fill-rule="nonzero"/><path fill="#ffc0a7" d="M 35.144531 285.671875 C 36.433594 292.976562 37.480469 294.023438 44.792969 295.3125 C 37.484375 296.601562 36.4375 297.648438 35.144531 304.953125 C 33.855469 297.644531 32.808594 296.601562 25.496094 295.3125 C 32.804688 294.023438 33.851562 292.972656 35.144531 285.671875 Z M 35.144531 285.671875 " fill-opacity="1" fill-rule="nonzero"/><g clip-path="url(#0ff7a021ea)"><path fill="#ecc889" d="M 9 312.449219 C 10.445312 320.644531 11.621094 321.816406 19.8125 323.261719 C 11.617188 324.707031 10.445312 325.882812 9 334.070312 C 7.554688 325.878906 6.378906 324.707031 -1.816406 323.261719 C 6.382812 321.816406 7.554688 320.640625 9 312.449219 Z M 9 312.449219 " fill-opacity="1" fill-rule="nonzero"/></g><path fill="#ffc0a7" d="M 40.773438 189.757812 C 41.320312 192.859375 41.765625 193.300781 44.867188 193.851562 C 41.765625 194.398438 41.320312 194.839844 40.773438 197.941406 C 40.226562 194.839844 39.78125 194.398438 36.679688 193.851562 C 39.78125 193.300781 40.226562 192.859375 40.773438 189.757812 Z M 40.773438 189.757812 " fill-opacity="1" fill-rule="nonzero"/><path fill="#bbbea0" d="M 363.78125 216.457031 C 365.542969 226.417969 366.96875 227.847656 376.9375 229.605469 C 366.96875 231.367188 365.542969 232.789062 363.78125 242.757812 C 362.019531 232.792969 360.597656 231.367188 350.625 229.605469 C 360.59375 227.847656 362.019531 226.421875 363.78125 216.457031 Z M 363.78125 216.457031 " fill-opacity="1" fill-rule="nonzero"/><path fill="#ecc889" d="M 294.242188 150.332031 C 294.867188 153.875 295.375 154.382812 298.917969 155.007812 C 295.375 155.632812 294.867188 156.140625 294.242188 159.683594 C 293.617188 156.140625 293.109375 155.632812 289.566406 155.007812 C 293.109375 154.382812 293.617188 153.875 294.242188 150.332031 Z M 294.242188 150.332031 " fill-opacity="1" fill-rule="nonzero"/><path fill="#bbbea0" d="M 202.914062 142.136719 C 204.125 149 205.109375 149.984375 211.972656 151.191406 C 205.105469 152.40625 204.121094 153.390625 202.914062 160.25 C 201.699219 153.386719 200.714844 152.402344 193.851562 151.191406 C 200.71875 149.980469 201.703125 148.996094 202.914062 142.136719 Z M 202.914062 142.136719 " fill-opacity="1" fill-rule="nonzero"/><path fill="#bbbea0" d="M 243.222656 251.925781 C 244.121094 257.019531 244.847656 257.746094 249.945312 258.644531 C 244.851562 259.542969 244.121094 260.273438 243.222656 265.363281 C 242.320312 260.269531 241.59375 259.539062 236.496094 258.644531 C 241.589844 257.742188 242.320312 257.015625 243.222656 251.925781 Z M 243.222656 251.925781 " fill-opacity="1" fill-rule="nonzero"/><path fill="#bbbea0" d="M 256.113281 189.253906 C 256.582031 191.910156 256.960938 192.292969 259.621094 192.761719 C 256.960938 193.230469 256.582031 193.609375 256.113281 196.269531 C 255.644531 193.609375 255.261719 193.230469 252.605469 192.761719 C 255.261719 192.292969 255.644531 191.910156 256.113281 189.253906 Z M 256.113281 189.253906 " fill-opacity="1" fill-rule="nonzero"/><g clip-path="url(#0bf6a8cbb1)"><path fill="#ffc0a7" d="M 344.898438 50.496094 C 346.425781 59.132812 347.660156 60.367188 356.300781 61.894531 C 347.664062 63.421875 346.429688 64.65625 344.898438 73.292969 C 343.375 64.660156 342.140625 63.425781 333.496094 61.894531 C 342.136719 60.371094 343.371094 59.136719 344.898438 50.496094 Z M 344.898438 50.496094 " fill-opacity="1" fill-rule="nonzero"/></g><path fill="#bbbea0" d="M 279.898438 236.191406 C 280.328125 238.628906 280.679688 238.976562 283.113281 239.40625 C 280.675781 239.832031 280.328125 240.183594 279.898438 242.617188 C 279.46875 240.179688 279.117188 239.832031 276.683594 239.40625 C 279.121094 238.976562 279.46875 238.625 279.898438 236.191406 Z M 279.898438 236.191406 " fill-opacity="1" fill-rule="nonzero"/><path fill="#ecc889" d="M 151.347656 64.371094 C 152.71875 72.121094 153.824219 73.234375 161.582031 74.597656 C 153.828125 75.964844 152.71875 77.078125 151.347656 84.824219 C 149.980469 77.074219 148.871094 75.960938 141.113281 74.597656 C 148.867188 73.230469 149.980469 72.117188 151.347656 64.371094 Z M 151.347656 64.371094 " fill-opacity="1" fill-rule="nonzero"/><path fill="#bbbea0" d="M 59.65625 172.617188 C 60.359375 176.605469 60.929688 177.171875 64.917969 177.878906 C 60.929688 178.582031 60.359375 179.152344 59.65625 183.136719 C 58.953125 179.152344 58.382812 178.582031 54.394531 177.878906 C 58.382812 177.171875 58.953125 176.605469 59.65625 172.617188 Z M 59.65625 172.617188 " fill-opacity="1" fill-rule="nonzero"/><g clip-path="url(#52f87f4683)"><path fill="#ecc889" d="M 208.179688 37.601562 C 209.898438 47.347656 211.292969 48.738281 221.039062 50.460938 C 211.292969 52.179688 209.898438 53.574219 208.179688 63.320312 C 206.457031 53.574219 205.0625 52.179688 195.316406 50.460938 C 205.0625 48.738281 206.457031 47.347656 208.179688 37.601562 Z M 208.179688 37.601562 " fill-opacity="1" fill-rule="nonzero"/></g><path fill="#ffc0a7" d="M 171.320312 263.195312 C 171.828125 266.074219 172.238281 266.484375 175.121094 266.996094 C 172.242188 267.503906 171.832031 267.914062 171.320312 270.796875 C 170.8125 267.917969 170.402344 267.507812 167.519531 266.996094 C 170.398438 266.488281 170.808594 266.078125 171.320312 263.195312 Z M 171.320312 263.195312 " fill-opacity="1" fill-rule="nonzero"/><g clip-path="url(#cd735cf726)"><path fill="#ffc0a7" d="M 237.773438 41.5625 C 239.378906 50.640625 240.675781 51.941406 249.761719 53.546875 C 240.679688 55.152344 239.378906 56.445312 237.773438 65.53125 C 236.167969 56.449219 234.871094 55.152344 225.789062 53.546875 C 234.871094 51.941406 236.167969 50.644531 237.773438 41.5625 Z M 237.773438 41.5625 " fill-opacity="1" fill-rule="nonzero"/></g><path fill="#ffc0a7" d="M 122.660156 186.828125 C 124.496094 197.238281 125.988281 198.726562 136.402344 200.5625 C 125.992188 202.398438 124.5 203.890625 122.660156 214.296875 C 120.824219 203.886719 119.335938 202.398438 108.917969 200.5625 C 119.332031 198.726562 120.820312 197.234375 122.660156 186.828125 Z M 122.660156 186.828125 " fill-opacity="1" fill-rule="nonzero"/><g clip-path="url(#681db04107)"><path fill="#bbbea0" d="M 96.878906 295.386719 C 98.324219 303.582031 99.5 304.753906 107.691406 306.199219 C 99.496094 307.644531 98.324219 308.820312 96.878906 317.007812 C 95.433594 308.816406 94.257812 307.644531 86.0625 306.199219 C 94.257812 304.753906 95.433594 303.578125 96.878906 295.386719 Z M 96.878906 295.386719 " fill-opacity="1" fill-rule="nonzero"/></g><path fill="#bbbea0" d="M 313.851562 65.632812 C 315.417969 74.492188 316.683594 75.757812 325.542969 77.324219 C 316.683594 78.886719 315.417969 80.15625 313.851562 89.011719 C 312.285156 80.15625 311.019531 78.886719 302.15625 77.324219 C 311.019531 75.757812 312.285156 74.492188 313.851562 65.632812 Z M 313.851562 65.632812 " fill-opacity="1" fill-rule="nonzero"/><path fill="#bbbea0" d="M 143.902344 260.828125 C 144.609375 264.816406 145.179688 265.386719 149.164062 266.089844 C 145.179688 266.792969 144.609375 267.363281 143.902344 271.351562 C 143.199219 267.363281 142.628906 266.792969 138.640625 266.089844 C 142.628906 265.386719 143.199219 264.816406 143.902344 260.828125 Z M 143.902344 260.828125 " fill-opacity="1" fill-rule="nonzero"/><path fill="#bbbea0" d="M 349.800781 156.628906 C 350.898438 162.828125 351.785156 163.714844 357.988281 164.808594 C 351.785156 165.90625 350.898438 166.792969 349.800781 172.992188 C 348.703125 166.792969 347.820312 165.90625 341.617188 164.808594 C 347.820312 163.714844 348.703125 162.828125 349.800781 156.628906 Z M 349.800781 156.628906 " fill-opacity="1" fill-rule="nonzero"/><path fill="#ffc0a7" d="M 80.71875 145.132812 C 82.285156 153.992188 83.550781 155.257812 92.410156 156.824219 C 83.550781 158.386719 82.285156 159.65625 80.71875 168.511719 C 79.152344 159.65625 77.886719 158.386719 69.023438 156.824219 C 77.886719 155.257812 79.152344 153.992188 80.71875 145.132812 Z M 80.71875 145.132812 " fill-opacity="1" fill-rule="nonzero"/><path fill="#ecc889" d="M 301.867188 106.59375 C 303.195312 114.121094 304.273438 115.199219 311.804688 116.527344 C 304.273438 117.859375 303.195312 118.9375 301.867188 126.464844 C 300.539062 118.9375 299.460938 117.859375 291.929688 116.527344 C 299.460938 115.199219 300.539062 114.121094 301.867188 106.59375 Z M 301.867188 106.59375 " fill-opacity="1" fill-rule="nonzero"/><path fill="#bbbea0" d="M 183.484375 206.058594 C 184.816406 213.585938 185.894531 214.664062 193.425781 215.992188 C 185.894531 217.324219 184.816406 218.402344 183.484375 225.929688 C 182.15625 218.402344 181.078125 217.324219 173.546875 215.992188 C 181.078125 214.664062 182.15625 213.585938 183.484375 206.058594 Z M 183.484375 206.058594 " fill-opacity="1" fill-rule="nonzero"/><path fill="#ecc889" d="M 91.066406 219.359375 C 92.828125 229.324219 94.253906 230.75 104.222656 232.511719 C 94.257812 234.273438 92.828125 235.695312 91.066406 245.664062 C 89.304688 235.699219 87.882812 234.273438 77.910156 232.511719 C 87.878906 230.75 89.304688 229.328125 91.066406 219.359375 Z M 91.066406 219.359375 " fill-opacity="1" fill-rule="nonzero"/><g fill="#272626" fill-opacity="1"><g transform="translate(143.476152, 243.404359)"><g><path d="M 17.25 -20.109375 L 11.640625 -20.109375 L 11.640625 -22.265625 C 11.640625 -22.492188 11.5625 -22.691406 11.40625 -22.859375 C 11.25 -23.023438 11.0625 -23.109375 10.84375 -23.109375 L 8.515625 -23.109375 C 8.296875 -23.109375 8.109375 -23.023438 7.953125 -22.859375 C 7.796875 -22.691406 7.71875 -22.492188 7.71875 -22.265625 L 7.71875 -17.421875 C 7.71875 -17.191406 7.796875 -16.992188 7.953125 -16.828125 C 8.109375 -16.660156 8.296875 -16.578125 8.515625 -16.578125 L 12.3125 -16.578125 C 15.800781 -16.515625 17.546875 -14.65625 17.546875 -11 L 17.546875 -5.140625 C 17.546875 -1.429688 15.800781 0.421875 12.3125 0.421875 L 7.34375 0.421875 C 3.851562 0.421875 2.109375 -1.429688 2.109375 -5.140625 L 2.109375 -7.96875 L 7.71875 -7.96875 L 7.71875 -4.9375 C 7.71875 -4.707031 7.796875 -4.507812 7.953125 -4.34375 C 8.109375 -4.175781 8.296875 -4.09375 8.515625 -4.09375 L 11.140625 -4.09375 C 11.359375 -4.09375 11.546875 -4.175781 11.703125 -4.34375 C 11.859375 -4.507812 11.9375 -4.707031 11.9375 -4.9375 L 11.9375 -10.296875 C 11.9375 -10.515625 11.859375 -10.707031 11.703125 -10.875 C 11.546875 -11.050781 11.359375 -11.140625 11.140625 -11.140625 L 7.34375 -11.140625 C 3.851562 -11.140625 2.109375 -12.992188 2.109375 -16.703125 L 2.109375 -22.140625 C 2.109375 -25.847656 3.851562 -27.703125 7.34375 -27.703125 L 12.015625 -27.703125 C 15.503906 -27.703125 17.25 -25.847656 17.25 -22.140625 Z M 17.25 -20.109375 "/></g></g></g><g fill="#272626" fill-opacity="1"><g transform="translate(162.788529, 243.404359)"><g><path d="M 12.734375 -27.28125 C 16.222656 -27.28125 17.96875 -25.425781 17.96875 -21.71875 L 17.96875 -16.28125 C 17.96875 -12.570312 16.222656 -10.71875 12.734375 -10.71875 L 7.96875 -10.71875 L 7.96875 0 L 2.0625 0 L 2.0625 -27.28125 Z M 12.0625 -15.609375 L 12.0625 -22.390625 C 12.0625 -22.617188 11.984375 -22.816406 11.828125 -22.984375 C 11.671875 -23.148438 11.484375 -23.234375 11.265625 -23.234375 L 7.96875 -23.234375 L 7.96875 -14.765625 L 11.265625 -14.765625 C 11.484375 -14.765625 11.671875 -14.847656 11.828125 -15.015625 C 11.984375 -15.179688 12.0625 -15.378906 12.0625 -15.609375 Z M 12.0625 -15.609375 "/></g></g></g><g fill="#272626" fill-opacity="1"><g transform="translate(181.594903, 243.404359)"><g><path d="M 12.953125 -27.703125 C 16.429688 -27.703125 18.171875 -25.847656 18.171875 -22.140625 L 18.171875 0 L 12.265625 0 L 12.265625 -9.15625 L 8.015625 -9.15625 L 8.015625 0 L 2.109375 0 L 2.109375 -22.140625 C 2.109375 -25.847656 3.851562 -27.703125 7.34375 -27.703125 Z M 8.015625 -13.703125 L 12.265625 -13.703125 L 12.265625 -22.859375 C 12.265625 -23.078125 12.1875 -23.269531 12.03125 -23.4375 C 11.882812 -23.613281 11.695312 -23.703125 11.46875 -23.703125 L 8.8125 -23.703125 C 8.59375 -23.703125 8.40625 -23.613281 8.25 -23.4375 C 8.09375 -23.269531 8.015625 -23.078125 8.015625 -22.859375 Z M 8.015625 -13.703125 "/></g></g></g><g fill="#272626" fill-opacity="1"><g transform="translate(202.04578, 243.404359)"><g><path d="M 7.96875 0 L 2.0625 0 L 2.0625 -22.140625 C 2.0625 -25.847656 3.804688 -27.703125 7.296875 -27.703125 L 10.421875 -27.703125 C 12.472656 -27.703125 13.929688 -27.03125 14.796875 -25.6875 C 15.617188 -27.03125 17.082031 -27.703125 19.1875 -27.703125 L 22.3125 -27.703125 C 25.789062 -27.703125 27.53125 -25.847656 27.53125 -22.140625 L 27.53125 0 L 21.640625 0 L 21.640625 -22.640625 C 21.640625 -22.867188 21.5625 -23.066406 21.40625 -23.234375 C 21.25 -23.398438 21.054688 -23.484375 20.828125 -23.484375 L 18.5625 -23.484375 C 18.332031 -23.484375 18.140625 -23.398438 17.984375 -23.234375 C 17.828125 -23.066406 17.75 -22.867188 17.75 -22.640625 L 17.75 0 L 11.84375 0 L 11.84375 -22.640625 C 11.84375 -22.867188 11.765625 -23.066406 11.609375 -23.234375 C 11.460938 -23.398438 11.273438 -23.484375 11.046875 -23.484375 L 8.765625 -23.484375 C 8.546875 -23.484375 8.359375 -23.398438 8.203125 -23.234375 C 8.046875 -23.066406 7.96875 -22.867188 7.96875 -22.640625 Z M 7.96875 0 "/></g></g></g><g fill="#272626" fill-opacity="1"><g transform="translate(115.903024, 302.437867)"><g><path d="M 12.953125 -27.28125 C 16.429688 -27.28125 18.171875 -25.425781 18.171875 -21.71875 L 18.171875 -5.5625 C 18.171875 -1.851562 16.429688 0 12.953125 0 L 2.109375 0 L 2.109375 -27.28125 Z M 12.265625 -4.890625 L 12.265625 -22.4375 C 12.265625 -22.65625 12.1875 -22.847656 12.03125 -23.015625 C 11.882812 -23.191406 11.695312 -23.28125 11.46875 -23.28125 L 8.015625 -23.28125 L 8.015625 -4.046875 L 11.46875 -4.046875 C 11.695312 -4.046875 11.882812 -4.128906 12.03125 -4.296875 C 12.1875 -4.460938 12.265625 -4.660156 12.265625 -4.890625 Z M 12.265625 -4.890625 "/></g></g></g><g fill="#272626" fill-opacity="1"><g transform="translate(136.353901, 302.437867)"><g><path d="M 8.015625 -4.890625 L 14.546875 -4.890625 L 14.546875 0 L 2.109375 0 L 2.109375 -27.28125 L 14.546875 -27.28125 L 14.546875 -22.484375 L 8.015625 -22.484375 L 8.015625 -16.0625 L 14.125 -16.0625 L 14.125 -11.421875 L 8.015625 -11.421875 Z M 8.015625 -4.890625 "/></g></g></g><g fill="#272626" fill-opacity="1"><g transform="translate(152.208602, 302.437867)"><g><path d="M 0.546875 -22.265625 L 0.546875 -27.28125 L 15.3125 -27.28125 L 15.3125 -22.265625 L 10.875 -22.265625 L 10.875 0 L 4.96875 0 L 4.96875 -22.265625 Z M 0.546875 -22.265625 "/></g></g></g><g fill="#272626" fill-opacity="1"><g transform="translate(168.105468, 302.437867)"><g><path d="M 8.015625 -4.890625 L 14.546875 -4.890625 L 14.546875 0 L 2.109375 0 L 2.109375 -27.28125 L 14.546875 -27.28125 L 14.546875 -22.484375 L 8.015625 -22.484375 L 8.015625 -16.0625 L 14.125 -16.0625 L 14.125 -11.421875 L 8.015625 -11.421875 Z M 8.015625 -4.890625 "/></g></g></g><g fill="#272626" fill-opacity="1"><g transform="translate(183.960169, 302.437867)"><g><path d="M 12.265625 -4.46875 L 12.265625 -8.6875 L 17.875 -8.6875 L 17.875 -5.140625 C 17.875 -1.429688 16.132812 0.421875 12.65625 0.421875 L 7.34375 0.421875 C 3.851562 0.421875 2.109375 -1.429688 2.109375 -5.140625 L 2.109375 -22.140625 C 2.109375 -25.847656 3.851562 -27.703125 7.34375 -27.703125 L 12.65625 -27.703125 C 16.132812 -27.703125 17.875 -25.847656 17.875 -22.140625 L 17.875 -19.5625 L 12.265625 -19.5625 L 12.265625 -22.859375 C 12.265625 -23.078125 12.1875 -23.269531 12.03125 -23.4375 C 11.882812 -23.613281 11.695312 -23.703125 11.46875 -23.703125 L 8.8125 -23.703125 C 8.59375 -23.703125 8.40625 -23.613281 8.25 -23.4375 C 8.09375 -23.269531 8.015625 -23.078125 8.015625 -22.859375 L 8.015625 -4.46875 C 8.015625 -4.25 8.09375 -4.050781 8.25 -3.875 C 8.40625 -3.707031 8.59375 -3.625 8.8125 -3.625 L 11.46875 -3.625 C 11.695312 -3.625 11.882812 -3.707031 12.03125 -3.875 C 12.1875 -4.050781 12.265625 -4.25 12.265625 -4.46875 Z M 12.265625 -4.46875 "/></g></g></g><g fill="#272626" fill-opacity="1"><g transform="translate(203.272545, 302.437867)"><g><path d="M 0.546875 -22.265625 L 0.546875 -27.28125 L 15.3125 -27.28125 L 15.3125 -22.265625 L 10.875 -22.265625 L 10.875 0 L 4.96875 0 L 4.96875 -22.265625 Z M 0.546875 -22.265625 "/></g></g></g><g fill="#272626" fill-opacity="1"><g transform="translate(219.169412, 302.437867)"><g><path d="M 18.171875 -22.140625 L 18.171875 -5.140625 C 18.171875 -1.429688 16.429688 0.421875 12.953125 0.421875 L 7.34375 0.421875 C 3.851562 0.421875 2.109375 -1.429688 2.109375 -5.140625 L 2.109375 -22.140625 C 2.109375 -25.847656 3.851562 -27.703125 7.34375 -27.703125 L 12.953125 -27.703125 C 16.429688 -27.703125 18.171875 -25.847656 18.171875 -22.140625 Z M 12.265625 -4.46875 L 12.265625 -22.859375 C 12.265625 -23.078125 12.1875 -23.269531 12.03125 -23.4375 C 11.882812 -23.613281 11.695312 -23.703125 11.46875 -23.703125 L 8.8125 -23.703125 C 8.59375 -23.703125 8.40625 -23.613281 8.25 -23.4375 C 8.09375 -23.269531 8.015625 -23.078125 8.015625 -22.859375 L 8.015625 -4.46875 C 8.015625 -4.25 8.09375 -4.050781 8.25 -3.875 C 8.40625 -3.707031 8.59375 -3.625 8.8125 -3.625 L 11.46875 -3.625 C 11.695312 -3.625 11.882812 -3.707031 12.03125 -3.875 C 12.1875 -4.050781 12.265625 -4.25 12.265625 -4.46875 Z M 12.265625 -4.46875 "/></g></g></g><g fill="#272626" fill-opacity="1"><g transform="translate(239.578123, 302.437867)"><g><path d="M 8.015625 -11.171875 L 8.015625 0 L 2.109375 0 L 2.109375 -27.28125 L 12.609375 -27.28125 C 16.097656 -27.28125 17.84375 -25.425781 17.84375 -21.71875 L 17.84375 -18.5625 C 17.84375 -16.3125 17.039062 -14.875 15.4375 -14.25 C 16.84375 -13.75 17.546875 -12.597656 17.546875 -10.796875 L 17.546875 0 L 11.640625 0 L 11.640625 -10.328125 C 11.640625 -10.890625 11.375 -11.171875 10.84375 -11.171875 Z M 8.015625 -23.28125 L 8.015625 -15.3125 L 11.140625 -15.3125 C 11.359375 -15.3125 11.546875 -15.394531 11.703125 -15.5625 C 11.859375 -15.726562 11.9375 -15.925781 11.9375 -16.15625 L 11.9375 -22.4375 C 11.9375 -22.65625 11.859375 -22.847656 11.703125 -23.015625 C 11.546875 -23.191406 11.359375 -23.28125 11.140625 -23.28125 Z M 8.015625 -23.28125 "/></g></g></g></svg>